# xmcd CD database file
#
# Track frame offsets:
#	150
#	25201
#	50698
#	72659
#	92365
#	107853
#	126550
#	147265
#	175962
#	203017
#	222700
#
# Disc length: 3500 seconds
#
# Revision: 0
# Processed by: cddbd v1.5.2PL0 Copyright (c) Steve Scherf et al.
# Submitted via: CDex 1.51
#
DISCID=af0daa0b
DTITLE=CiudadBlues - CiudadBlues
DYEAR=2012
DGENRE=Blues
TTITLE0=First Time I Met The Blues
TTITLE1=Hoochie Coochie Man
TTITLE2=Someday After A While
TTITLE3=Man Of Many Words
TTITLE4=Mary Ann
TTITLE5=Messing With The Kid
TTITLE6=Got My Mojo Working
TTITLE7=How Much I Love You
TTITLE8=Night Time Is The Right Time
TTITLE9=Every Day I Have The Blues
TTITLE10=I'm Woman
EXTD=YEAR: 2012
EXTT0=
EXTT1=
EXTT2=
EXTT3=
EXTT4=
EXTT5=
EXTT6=
EXTT7=
EXTT8=
EXTT9=
EXTT10=
PLAYORDER=
